<svg height="293" preserveAspectRatio="xMidYMid" viewBox="0 0 256 293" width="256" xmlns="http://www.w3.org/2000/svg"><path d="m255.268469 75.5432315c-.007351-2.0831398-1.121643-4.0052921-2.925713-5.0468555l-122.14853-69.71243349c-1.810438-1.04525668-4.040989-1.04525668-5.851427 0l-121.41710164 70.94854739c-1.81537967 1.0480996-2.93142015 2.9872199-2.92573508 5.0834268l.73145011 140.6244093c.00735144 2.08314 1.12164264 4.005292 2.92571329 5.046856l122.14853032 69.683176c1.810437 1.045257 4.040989 1.045257 5.851426 0l121.417102-70.948547c1.81538-1.0481 2.93142-2.98722 2.925735-5.083427zm-127.575728-2.6916563 51.28044 29.2571328.160914 51.463297-20.209365-11.52731-.095086-28.196562-31.01256-17.6932514-30.8589614 18.0297084.0877714 28.181933-6.8827405 4.008227-13.2461669 8.506512-.1682286-52.275183zm-8.87954 56.8173518-14.518852 8.462626-.0512-16.757023zm-82.2418008 38.612102v-42.751986l32.9142746-19.265822.0731428 23.317935-12.7634242 7.460569.1023999 19.58765 17.0130228 9.69874 77.6776879-45.348556.065829 23.317935-77.6118598 45.348556zm91.7357408 51.880211-43.4614714-24.810049 19.1195364-12.287996 24.217592 13.809367 24.444334-14.284795 20.238622 11.541939zm54.125695-31.063761-45.121813-25.724334 20.041136-11.761368 24.927078 14.18971 16.910622-9.881597-.1024-19.587651-12.770738-7.314283-.073143-23.266735 33.184903 18.951308v42.751986z" fill="#3f5dff"/></svg>